<mxfile host="65bd71144e">
    <diagram id="CMQg51BvpoOCm5JeQdvb" name="TF-State">
        <mxGraphModel dx="1129" dy="700" grid="1" gridSize="10" guides="1" tooltips="1" connect="1" arrows="1" fold="1" page="1" pageScale="1" pageWidth="1654" pageHeight="2336" math="0" shadow="0">
            <root>
                <mxCell id="0"/>
                <mxCell id="1" parent="0"/>
                <mxCell id="7" value="&lt;b&gt;Remote State&lt;/b&gt;" style="dashed=0;verticalAlign=top;fontStyle=0;whiteSpace=wrap;html=1;align=left;spacingLeft=6;" vertex="1" parent="1">
                    <mxGeometry x="473.5" y="223.75" width="140" height="372.5" as="geometry"/>
                </mxCell>
                <mxCell id="3" value="S3 State Bucket" style="sketch=0;outlineConnect=0;fontColor=#232F3E;gradientColor=none;fillColor=#7AA116;strokeColor=none;dashed=0;verticalLabelPosition=bottom;verticalAlign=top;align=center;html=1;fontSize=12;fontStyle=0;aspect=fixed;pointerEvents=1;shape=mxgraph.aws4.bucket;" parent="1" vertex="1">
                    <mxGeometry x="506" y="280" width="75" height="78" as="geometry"/>
                </mxCell>
                <mxCell id="6" value="DynamoDB&#xa;Lock Table" style="group;labelPosition=center;verticalLabelPosition=bottom;align=center;verticalAlign=top;" vertex="1" connectable="0" parent="1">
                    <mxGeometry x="497" y="450" width="93" height="90" as="geometry"/>
                </mxCell>
                <mxCell id="4" value="" style="sketch=0;outlineConnect=0;fontColor=#232F3E;gradientColor=none;fillColor=#C925D1;strokeColor=none;dashed=0;verticalLabelPosition=bottom;verticalAlign=top;align=center;html=1;fontSize=12;fontStyle=0;aspect=fixed;pointerEvents=1;shape=mxgraph.aws4.table;" parent="6" vertex="1">
                    <mxGeometry width="78" height="78" as="geometry"/>
                </mxCell>
                <mxCell id="5" value="" style="sketch=0;points=[[0,0,0],[0.25,0,0],[0.5,0,0],[0.75,0,0],[1,0,0],[0,1,0],[0.25,1,0],[0.5,1,0],[0.75,1,0],[1,1,0],[0,0.25,0],[0,0.5,0],[0,0.75,0],[1,0.25,0],[1,0.5,0],[1,0.75,0]];outlineConnect=0;fontColor=#232F3E;fillColor=#C925D1;strokeColor=#ffffff;dashed=0;verticalLabelPosition=bottom;verticalAlign=top;align=center;html=1;fontSize=12;fontStyle=0;aspect=fixed;shape=mxgraph.aws4.resourceIcon;resIcon=mxgraph.aws4.dynamodb;" parent="6" vertex="1">
                    <mxGeometry x="53" y="50" width="40" height="40" as="geometry"/>
                </mxCell>
                <mxCell id="11" value="Sync" style="edgeStyle=none;html=1;exitX=1;exitY=0.25;exitDx=0;exitDy=0;strokeWidth=3;targetPerimeterSpacing=6;sourcePerimeterSpacing=6;fillColor=#60a917;strokeColor=#2D7600;fontStyle=1;labelBorderColor=none;spacingLeft=0;spacingRight=0;startFill=1;fontSize=13;" edge="1" parent="1" source="2" target="3">
                    <mxGeometry relative="1" as="geometry"/>
                </mxCell>
                <mxCell id="12" value="Lock" style="edgeStyle=none;html=1;exitX=1;exitY=0.75;exitDx=0;exitDy=0;strokeWidth=3;fillColor=#6a00ff;strokeColor=#3700CC;targetPerimeterSpacing=6;sourcePerimeterSpacing=6;fontStyle=1;fontSize=13;" edge="1" parent="1" source="2" target="4">
                    <mxGeometry relative="1" as="geometry"/>
                </mxCell>
                <mxCell id="2" value="" style="shape=image;verticalLabelPosition=bottom;labelBackgroundColor=default;verticalAlign=top;aspect=fixed;imageAspect=0;image=data:image/png,iVBORw0KGgoAAAANSUhEUgAAAdkAAAIACAYAAADOnhZ4AAAABmJLR0QA/wD/AP+gvaeTAAAgAElEQVR4nOzdZ2AU5cIF4DOzu+k9BNLpQhJ66ChNrxUs13LtCCoqFjp2RUUQEAFBVKyoqHwWLOhVQZAmvSYhdEgnAdI2m7a7M9+PgBeRmuzsuztznn9Sdo6knOzuzBkJROQ5mjXzC64NTJWgdlFVOUWV1OYSkAAgCkAoAMuJP1kNoBySVARVzVKhHpBUKUOWlM1l+U12An84hP0/ENFfJNEBiIwuJD6llapINwLqtQB6AfBr4ENaAaxUJeknRbb/UJmzJ7/hKYmoPliyRAJERaUEVZnVuyRZuh8quml4KEWCtFyB+kFFOL5FRkathsciotOwZIncKCi6c5Qk144B8DCAMDcfPh+QZvnZ1bePHs2ocPOxiQyJJUvkBk2adAi0mZxjJWA8gCDBcYpU4OWKGL/52LLFLjgLka6xZIm0JYfEpdytqngNQIzoMKfZp0rqsxV5u74GoIoOQ6RHLFkijQTGJl0hQ54BoIPoLOexAao63lqwa7XoIER6w5IlcrHQmPapiqRMBzBAdJaLtESSlTHluZn7RAch0guWLJGL+Me2SzBL6nNQ8QAAWXSeerJDwkeKXXrBVpReKDoMkbdjyRI1UGhi+3DFoTwJYCQafo2rp6iQIM0ol4OnInddlegwRN7KJDoAkddKTbUEI+IBVVUXA7gSgFl0JBfyAdDfV625zzeocUVtRf/twC6eHEV0kfhMlujiSUFxybdIqjQFQEvRYdxklyqpEyvydn0lOgiRN2HJEl2E4Lj2vaAq0wH0EZ1FBAnSMgeUCZX5u7aJzkLkDViyRBcgOLZDGwnKKyrUW0Vn8QCKBOkbWXFMKD2y+7DoMESejCVLdA7BsZc0UmF+XoI0Avp6z9UValWo75h9fF4sPby9VHQYIk/EkiU6g9jY1AArqh8H8AyAENF5PFwxgGnWgJpZ2L+/RnQYIk/CkiX6O0+eQfR0WZKEF8rzMj4FZxqJALBkif7iRTOInk3FRhXK+IqCzFWioxCJxpIlw/PiGUSPJkFapjidoysKM9NFZyEShSVLhqWTGURPVzfTWIsXbUczjogOQ+RuLFkyHJ3OIHo6G4C5vrWOV48d22MVHYbIXTirSMah7xlET+cD4FKnSb6XM41kJHwmS0ZgxBlET5epSuqLnGkkvWPJkq4ZfQbR00nA7xKUCWX5mVtFZyHSAkuWdIkziF5FlSB9LTnlJ8sKdx4SHYbIlViypCucQfRqnGkk3WHJki5wBlFXONNIusGSJW9niBnEYH8nkppXI66RHQ5FQt5RCzIO+qPGrt8vYRXIliU8z5lG8mb6/Qol3TPCDGKL2BoMG3Qcg/uUwd9X+dvvlVaYsHhlGD78KRKFxRZBCd1AwibVKY+vOJK2UnQUoovFkiWvExrTrqsiqdOg4xnE8GAn7h90DEOvOw6L+dxP4qprZHzySwTe/a4RrFX6vfSdM43kjViy5DWMMIPo56vg3quL8fANRxEUoJz/L5yitMKE939shI9/ikStQ7df2g5I+JAzjeQtdPuVSPphhBlEWQauv7QUY+8oRJNwR4Me63CBD2YuaoJfNoRA1e87mZxpJK/AkiXPlZLiE1yM+yBhEoAo0XG00qe9DRPuPoKkptUufdwd+/0x9bNobN4d4NLH9TD5UPGStSD5A+Arp+gwRKdjyZInqptBhPQaVLQQHUYrKS2qMOGuQvRKsWl6nBVbgzHlk2gcPuKj6XEE40wjeSSWLHmUEzOIrwPoLTqLVmIi7Rhx01HcMrAUJtk9r+fanRK+XRGG2V81xrEyXW90LJehjOdMI3kKlix5hODY9m0lqC/reQYxJNCJ4dcfw5Brj8PXIubN0spqGR8sicR7PzRCda0uzx0D/ppplJ4qK0w7KDoMGRtLloQywgyixaTi3wNKMerWIkSGNuykJlcpLLZg7rdR+Hp5GJyKbr8NcKaRhNPtVxd5tiZNOgRWmpyPQccziJIEXN2jHGPvKERik1rRcc5of64v5nzdGP9dr8sPwUl1M40+ttk4fNi1Z5cRnQdLltzNEDOInVpX4am7j6BLm0rRUS7I2rRATFsYjczDurxCCkDdTKOk4lVrQcb7AC7uImSiemLJktsEx6YMBjAVQJLoLFppHluD0bcVKVf3LPe6NzxVFVi2ObhmyqfRvrlFOj4TWcVGFcr4ioLMVaKjkP6xZElzIdEp3VQTpkNFP9FZtBIR7KydNDxvz+VdrcmSBO/eNlRhX7EtKH383Lik8kqzfp/aAt8D8lPW/LTdooOQfrFkSTOhTTo0V03OySrwH+j0c83PV1HH3Vm48+5/FbeUZQSJzuNKioLSL36PODBlQXTnWofkdc/ML5BDUtX3nU55oq0ovVB0GNIfXX7jI7FC4lMiVCeehYRHAfiKzqMFWQbuufr47gl3FUZaTKpu16gAoNYhHZnxZZNjH/8U2U7HM40VKjA90GmaUVi4U9t1EDIUliy5TqtWvsGVfo8D6jMAwkXH0crlqdasqSNy1ZBApZnoLO5UViHvHTs33rRqe3BL0Vk0VAAVL1oLkj/kTCO5AkuWXEEKiU25QwVeBdBMdBitdGpVdWzmqJxjcY3sbUVnESnvmGXXo9MTIndl+TcRnUVDGZIkPVmel/6T6CDk3Viy1CBBcSkDJBXTAHQVnUUrsY3stmkjcjO7J1d2gU5vsVcPjs27A7aOmp2QVFRiDhYdRkMrZFUeX1aQtkV0EPJOLFmql6DolGRJxlQAg0Rn0UpIkNPx8rCCtGt6lSVLkj7fW24oFaj8ZX1o5jPvxnawVckW0Xk0oqrAF2bF+Wzpkd2HRYch78KSpYsS0DQpxmSXXwIwDPDyS1XOwmJS8eCNx3Y8/u+j8SaTGik6jzdwOKSieYsb5b7zXVRnh1PS6/eVGkCdI5tNk8uy00pEhyHvoNcvBnIxo8wg3jyg9MDzQwr8/X2VWNF5vFG1XTr86scxVYt+D9ft4AiAEgBTOdNIF4IlS+djiBnEbkmVhTOfyC1vHG5vLTqLHhwvN29/dEZi8NY9/ro9E1kCclQVkzjTSOfCkqWzCoxNukKG/AaA9qKzaKVlXE3ZjMfzspObVen2/1EgdX+O39YRbyQkHi7w0fO1xJtVCRMq8jJWiA5CnoclS/8QGtOuqwJ1OiT0F51FKxHBztpXH8rNvLxrRQp0eos9D1K7eXfA9sdmJiYXl5l0tYp1KgnSMqeMsbbc9J2is5DnYMnSX8JjUxIdEp6Figeg00tV/HwVZdzthRl3X1XcXG8ziJ5OVVD25YqIPZM/bpJaY5d1edIcAAUSFjrNypOVWZkFosOQeCxZQmhi+3DFoTwJYCQAXQ7CyzJw7zXHM8bfUdjEYlYbic5jZHaHdOTt7xrlzfu2caqi03cyVaBSAuZYqmsmFxfvLxedh8RhyRpZSopPcDHug4RJAHT7ntnlqdas10bkITTQ2VR0Fvqf8gp577h58dIfW4P1fLLZMUmVJpUXNHoL+MMhOgy5H0vWmKSguORbJEivQUUL0WG00qlVZdHM0bklcZH2NqKz0NkVHLekPTojISL9oH+c6Cwa2qNK6vMVebu+Eh2E3IslazDBse16A+p0AL1FZ9FKbCO7bfojebu7pdg6Q6fvLeuQknHQf8vD0xPaFJZYdHkddh1pPaCOs+ZnrBWdhNyDJWsQwbHt20pQX1ah3io6i1ZCA532ifcXZFzbqyyJM4jeSVVRtXRzyI6n347rbK2U9foxVCVIX0smPF2Wk35AdBjSFktW54KiO0dBrnlOgjQCOr1UxWJS8cCNx3Y+cXNRvElGhOg81HCKiuIFP0cemP55k646nmm0Q8JHqsP0fEXhziLRYUgbev3kNbxTZhCfBaDLu6RIEnBL/9J9zw/ND/DzUfX8fp5hVddKWZMXRNu+/D0iWXQWDXGmUcdYsvpjiBnEHsmV2TOfyKlqFObgSU0GUFYhZ46cneDzZ1oQZxrJq7BkdcQQM4jxNSUzHsvL5QyiIan7c/y2PjozIfFQvq5nGrecmGlcLjoINRxLVgeMMIMYHuyomjYif1e/ztaO0Ol7y3TB7Jt3B2x7YlZC8rFSs25XuyRIy5ySOs6Wl7FDdBaqP5asFzPKDOKEu45sv+tfJa0lSZ/vLVP9/G+mMbpLjV3S6w9edTONsuOpypw9+aLD0MVjyXqhkPiUCFXBBHAGkQgOp3Rk3uJGeW9/G5XqVPT5LY0zjd5Ln5+RemWQGcQrupbvm/ZoninIX9HtGhW5XlW1fOiZd2Oqf1oXpucbxh8D8Lo1HDORkVErOgydH0vWOxhiBrFz68rCN0bllnIGkRqi4Lgl7bGZCeFp+/3jRWfR0MmZxq8BqKLD0NmxZD2cMWYQa8tefyxvT9e2lV2h0/eWye2U/Tl+2x6antA8p8hHxwMl0npAHW/Nz1gjOgmdGUvWQxlkBrF24v0FuziDSFo5OdP4zNtxncorZV2ev3DCEknG6PLcjP2ig9DfsWQ9TEBCm1iTYn4RKoZBp5eqWEyq+tBNR7c++u+jzTmDSO6gqChZtDxi36SPorvaHZJeXy3hTKMHYsl6CKPMIN46oGTPc/cVBHEGkUSorpWyJ38SbV30e0SKqt93MiskSDPK5eCpyF1XJTqM0bFkhetvDo45OgwSXgIQLTqNVnom27LeeCK3mjOI5AnKbPLu0bMTLGt26nemEUAuVLxiLUj+APjKKTqMUbFkBTLCDGKr+JqiN0fm5rRKqE4VnYXodNmFPtuHv5YYd7DAV7eXxAHIkCTpyfK89J9EBzEilqwAIdEp3VQTpkNFP9FZtBIe4qyc9kheJmcQyQvYN+8O2DZyVkLS0VKzLt+qATjTKApL1o1OzCBOgoq7odN/ez8/xfH0PYVbbx9YnMQZRPImqgrbD2tC059/Py61uka/M40SpG9k1Tm+tCAzS3QYI9DlN3pPY6QZxAl3FjY2m1Q9v/RGOud0SIVvfdco1wgzjWY/vyklB7eUic6jZ/r8DPIUKSk+IcXSI6qkTgQQJjqOVv7Vzbp72ohcS6C/oueTSMhgqmrkQ8+/F1P9wxpdzzQeBzCdM43aYclqwxAziJ1aVxbMHp1bGhNh1/M3ITK4guOWtCdmJoTv0PdM415VUp/jTKPrsWRdLCguZSBUaboEtYvoLFqJa2Qvmf5Y7j7OIJKBGGSmERugquOtBbtWiw6iFyxZFzHGDKKj+tWHC7Zf2a28E3T63jLRedSu3BacNnZOXEp5pUnPXwOcaXQRlmwDGWQGUXnopqPbOINIVEdRULpoRcTeVz+K7lqr85lGxS69YCtKLxQdxluxZOvJKDOIt19RkvbMvQXhvhZVz+9HEdVLrUMqeP2LJiULfo5M5kwjnQlL9qIZYwaxV4rt0MyRudURIQ6e1ER0HuU2efeYN+PNq3YEtxKdRUOcaawHluxFMMIMYuv46iOzR+blcQaR6OLlHbNkPDo9MWpXll9j0Vk0tAuS9KQ1L32J6CDegCV7AQwyg2ib8VhO+qUdbKnQ6XvLRG7i2Lw7YOuo2QlJRSW6n2kcb8vL2C46iydjyZ6DIWYQfRX70/cWbuMMIpFrqUDl0k0hO5+aF9elokr2EZ1HI3UzjYpjQumR3YdFh/FEuiyOhjplBnEUAF/RebQgy8DQa49tH3tHURxnEIm043BIRfO+a5Tz9rdRXZyKpNfvuVUA3uRM4z/p9QNeP0aZQexuzZz2SK4PZxCJ3KeqVjo8eUFM9aLfw9uKzqKhupnGgJpZ2L+/RnQYT8CSrVM3g6hKUwE0Fx1GK6ltK7NmjcytaBJuTxGdhciojpaadzw6IzFi+z7/BNFZNLRPldRnOdPIkkVgXPLlkipP0/kMYvHMx3N3d2pT2ROcQSTyBOr+HL+tj7yR0CyrwCdSdBjNqNioQhlfUZC5SnQUUQxbskEx7ZJkCS/peQYxJNBRNfnhgh2cQSTyWLVrdgZuGzUrvmN5pVnPX6NLJFkZU56buU90EHczXMmeMoN4PwCT6DxasJhUZcQtRzc+csPR1rIM/f6UTKQTJ2caJ3/cJLXGLuvy+xIMOtNomJI10gzis0MKwnzMqp7f7yHSJbtDKpj7bdSxd7+Laq8ootNopgLAW352TDp6NKNCdBitGaBkjTGD2Ltdxe5Zo3OcYYEKT2oi8nLlFfLecfPi5T+26nqmMQ8qXtb7TKOuSzYwNukKWTLNhKq2E51FK63jqwtmj8zL5wwikf4UHLekjXg9MTLjkF+s6Cwa2qVK6sSKvF1fiQ6iBV2WrBFmECNCnCUzn8jd1atdRQ9wBpFIz5Sd+/23PzojoVVhiSVEdBitSJCWOaBMqMzftU10FlfSVckaYQYxwFepffa+I5tu6V/SgTOIRMZxcqbx6bfjOlsrZV0u0eHETKPklJ8sK9x5SHQYV9BFERlkBlF9YPCxTaP/U9TMJKt6vsMHEZ2DU0HJR0saZb2xqHFHh1O3M421KtR3zD4+L5Ye3l4qOkxDePcHyCAziFf3LNs29ZG8IH9ftbXoLETkGapqpazJC2IqF/0erud7PhcDmObNM43eWrLGmEFMqjw064ncSs4gEtHZFFvNu0fNjgtanx4ULzqLhrIkCS+U52V8Ci+bafS6kjXCDGJ8I/uRWaNy9nVoVdUHnEEkovNT9+f4bX10ZkLTQ/k+jUSH0YwXzjR6TckGNUlqJ5nlaVBxjegsWgkJclqnj8jbNqCLtTs4g0hEF8++Pj0wY/Sb8W2Pl+t4plHCt5KEJ8tzM/aLjnI+Hl+y/rHtEsyS+ipU3Am9ziCaVfuo24rW3j/oWHvOIBJRQ6kKyj7/PWL/a59Ed66xS3p9NawGKt6STHi1PDejWHSYs/HYko2KSgmqsUjjVKgTAPiLzqOFU2YQw33Mqp7fTyEiAewO6cjcxVFF7y6O6qDjmcYSAFOtPrbZOHy4WnSY03leyaamWoLzq4dCwssAmoiOo5U+7St2zRqZo4QGKbpdoyIiz2CtkPeNezteWrFF1zONuVDxiqfNNHpUyQbHpgwGMAOAbi9VuSSxOuutMTn5TaNre4nOQkTGUnDckvbYG4mRaQd0PdOYIcnKhPLczJ9FBwE8pGRD4lO6q4o0HVD7is6ilYgQZ/HMJ3IzOYNIRIIpGQf9tzzyekKbI8X6nml0Suo4W17GDrE5BAqLSWrqlOVX9DyD6O+rVL44tGDTTf1Ku3AGkYg8haqiaunmkB1GmGmUVef40oLMLBEBhBSbQWYQlQcGH9s8+j+FzUwyOINIRB5JUVH8+dLww1M+ielsd+hzplEFKiVgjtnPb0rJwS1l7jy2e/9BDTKDeE3P8q1THskNDuAMIhF5iepaKfvVBTG2/1senqR61abSRTkOYLo7ZxrdVbKGmEHsmlR58M1RObZGoY72orMQEdVHWYWcOWpOou/aHYEtRGfR0F5VUp+ryNv1NTSeadS8ZIPiUgZClabregYxyl4wa2TOfs4gEpFeHD7is/PhaYkxB/N9o0Rn0dAGqOp4a8Gu1VodQLOSDY5t31aC+rIK9VatjiFaSJDTNvXhvO2Xd7WmgjOIRKQ/9s27A7Y9MSsh+VipOUh0GA0tkWRlTHlu5j5XP7DLSzY49pJGKszPS5BGQKeXqljMqv2J246uf3DQ0WTOIBKR3qkqbN+tCtv94gcxnaprZV3O2wKwQ8JHil16wVaUXuiqB3VZydbNIGK8CowFEOiqx/UkkgT13quL/5xw15FEi1lNEJ2HiMid7E6pcM7XjY+9931kilPR5YnIAFAG4DWrHDIbueuqGvpgrvhXkoJjk+8DpMkAol3weB7pso4V22aNzDEFBygdRGchIhLJVi1nPTc/zvnTnyG6PTlKAnIUSR1Xkbfr/xr4OPUXmtCupaKoH0BFv4Y8jidr07T6wLyx2UcSGtv7iM5CRORJ8o5ZMh6flRCZvt9ft0+woEo/O0ym4VW5O/Lq89frXbLBcSlDoGIuAF2+GR4Z4iycMyYro2vbqr7Q6XvLREQuoOw67J/x2BvxTXOLfPQ601gMqMOs+bu+v9i/ePElm5LiE1yCtwA8cNF/1wv4+yq2lx7MX3dDn7IenEEkIrowqorqXzaEpD8/P65DeaXsIzqPBlRI6hRr3q7nAVzwjQMvqmRDE9uHKw71Oz0O+csyHCNuKlr92M1Hk2VZv7fYIyLSklNB6ee/RWRP/Sy6fa0eZxolfGO12O6+0HvXXvA/QFCTDo0lk/M3AB3rHc5DDepdtm7yI3mRfhb1EtFZiIj0oKpWypm8IKZCpzONywOcpusLC3fazvcHL6hkg6I7R0ly7QoAKQ2O5kG6Jdky5o7JtYcHOzqJzkJEpEclVvO+sXPjfNfsCEoUncXFVljlkOvOd5nPeUu2UaM2wTU+5uUAurosmmAJTWqz3xqTs69t0+oB4AwiEZHmcop8dj86IyFqd5afngZ8vrfmJ98MfOU82x84X8nKwbEpPwC4zrW5xAgNchbPfCx326WdKvqAM4hERO5m35gRmDZqTnzbY6XmANFhXELFTGtBxpiz/fY5SzYkJuUVVcJzrk/lXj5mtXrMHYUrh157PFWS0Eh0HiIiI1OByp/Xhu577v2YdrYqk9fPNErAneX5GV+c5ffOLDA26QoZ8q/w4pdTJQnKvdccX/PknYXNzGZVb+8HEBF5NYddKnpzceOi976LbOflM41W2SR1LstJP3D6b5zx/yqsWacwZ609DUC85tE0kty8au/CFw7XBPorvLcrEZEHK6uQ9941sXno3lw/b758co01P6MfTruG9oxP0y3+jWZBwkC3xNJA/84VOz574XCij4Uj/kREns7PR42844oS59r04KIjxy2hovPUU6JPcOOiWuvRTaf+4j+eyYZEp3RTZayHl75MHBdpL1g+d6+/JCFMdBYiIrpwTodU2OOhS0LKbWZ/0VnqqQSSs7U1b/fxk7/wjyJVZcw40697i/eezN7PgiUi8j4ms9pkysP5W0TnaIBwKKZnT/2Fv5VpaGy7KwFc5tZILhQR7ChqlVjdTXQOIiKqn8tTrW0sZtUhOke9SXgkIKFN7Mn//FvJKsCz//wb3uOWgSV7wetfiYi8liwjqkeSba/oHA3gZ3KaR578j79KNiA2ubO3D/+3b1F9QYPNRETkuZKbVR0TnaGBHoyNTQ0ATilZkyQ9LC6Pa4QHOS2iMxARUcOEhSjefkuBcKtUfStwsmRbtfKFituERnKB7EKLXXQGIiJqmH25vl6/AgUV9wInSja40vcqwPvPyP0zM8jr/x+IiAxO2ZAR2Ex0CBfoFxTdOerky8WDhEZxkV//DGmnKigQnYOIiOqnpNy8If+YxWvXBk9hkky1154s2SuFRnERu1PyW7wqzJvPSiMiMjJ14ocx3v9S8QmqKv1LDotJagqgqegwrvL8+7G9yyvkNNE5iIjo4mzYFbj8v+tDuovO4SoS1Etlhyz1EB3ElewOyXLF6EviyyvknaKzEBHRhdm4K3D5kEnN+ovO4WJNZVmROohO4WqlVlN4r4fbtv1uVdhyVUWF6DxERHRmtQ7p4Ni58evvfrnZQEU5801rvJkUEtvu/1Sot4oOopWIYEfRGyNzt/VuZxsAwEd0HiIiAhQVxV+tCN/z8ocxXe0OSbcbB1JwbMomAF1FB9Fa68SaA++MyzqS0NjeG+e4WT0REWmqcsXW4M1j34rvXGGTg0WH0ZoUEpuSrQKGue9qnw4V294clSMFByidRGchIjIQ5WCez5bh0xITsgt9o0WHcRcpODbFCiBIdBA3U/9zecma54cWJPqYVd2cWU1E5ImOlpq3Pfp6YuD2/f6XiM7iblJwbIoTXnz/2IbwMas1o/5TuHrYdcc7yjKiROchItITW7Wc+eS8+KrfNgZ3EZ1FFCk4NsXbh5gbLMBPKX390bxNV3QrvxSAv+g8RETezKlIBe983yhr7ldR3Z2KZMgncSexZE8R18ieP3tUzoEOrap6A/o7lZyISEuqitIf14Ztfu7dmD7VdplPWMCSPaPkFlUZ88dnWxuHO3qKzkJE5AXsO/f7r3/k9cSko6XmRqLDeBKW7Dlc07N862uP5AX6+yptRGchIvJAak6R5c8HX2safzDflyeRngFL9jxkGco9Vx9f89TdR5qbZONc6kREdC4VlXL66DkJzpXbgjqKzuLJWLIXyM9HrZw4LH/TTf1LO0tAiOg8REQi1DqkQ9M+a3Lkk18ie4LDPufFkr1I4cHO41NH5Kb371zRE4Cv6DxERO6gqjj+5bKI7a98HH2ZwylxovYCsWTrqWl07cF3xmXntoyvuQz8aY6I9Kvyj21Bm8bMie9cUWniq3gXiSXbQD1TKtPnjMpyhgYrfF+CiPREOZDru2bYa01bFByzxIsO461Ysi5yXa+y9a89mhfha1YNNxtGRPpyrMy8dcT0xCAjziC6GkvWhSxm1f7EbUfXPzj4aBtZQmPReYiILkZljbTr6Xlx5f/dEMqNABdhyWrA31exvfJgwbrrLy3tAUD3t3IiIu/mVKT895c0OjDry8a9nTq8cbpILFkNxUbZC94cmbOfM41E5Ik4g6g9lqwbJDWt3v/WuOwj8VH2S0VnISICZxDdhiXrRlf3sG6dOiLX399XSRKdhYgMiTOIbsaSdTNJgnLPVcc3PHVPYbzZpHKmkYjcoqJSTh85O0FZvSOog+gsRuIJJevs29m++eaBNcdTWjj9FEV1Hsg1y98s9435fbMlWRWdTiMWs2p7cUjB2tuuKOkBCaGi8xCRPtU6pEOvfRp97LNfI7qJzqIVWZad117Zf9sNg64sbtE0UVUV1bwtLcPx9Xf/jdmweVt7CBwMElqyN/WvWf7O07Ywf1+1y5l+v6oGB599O9D2wfd+7fVatmHBjqMzn8jd1qe9rS8AP9F5iEgfFBXFC/8bkTllYXQPh1Myi86jBVmWlSceuW/dc+Mej/PxsTQ7058pr7BtGfbwOPy2YiIaSiMAACAASURBVHWqm+MBEFeyzkWTrd9d07v2RlzAWbfHy+S9Q18O9v1ji1m37yEkNq49+N5T2dnNY2v6gTONRFR/lSu2BG8ZOy++c4VNDhIdRiuDrrl853uzp1gCAwMu5BwX+0effrV85FMvXaV5sNMIKdl3n7F9eceV1bdf7N/LOmLKvOu5oMid+826HXromWLbPmdMthIaqJzx2T0R0Vkoe7L9Njz4WmKLI8WWJqLDaCUlufWhhe/PKWjRNL73xf7d6W++t/SVqbP/pUWus3F7yXZNcaxZ/lZZdwD1vYuDY+VWy7Zhk4KSjxbLga7M5kHUG/qUrZr0SF60r1nlDeOJ6JyKSszbR8xoGrRzv18r0Vm0Ehfb5Nin82ft7dq5fQ/Uf3egqmv/6/P37jvY0pXZzsXtJZvxZckPCdHK9Q19HBWoXLzcd89jMwLbV9j0+n4Dah+7peiPETce7SjL0O1PpkRUP1XVcua4ufHVSzcHdxadRSsBAf6VMyc/v/72WwZ3lySpwS9/b9yy49crrr/LbS8bu7VkA/2RXfDf41EAXLYs4nCgcPLH/gUzv/Dv5HTq861Mf19n2eSHCv68rndZH/CG8USG53BKBe9+H5U95+uobooCWXQeLZjNJufz4x9fP3LEsEtkWY5y1eOqqloe2ayTv8PhtLjqMc/FrSX7rx72Fd9MLR+gxWNXVEkHH50aZF/8h49uX16NCHHkvjM+Z1en1pUDAejy2TsRnZ2qovTbP8J2vvRhbPdqu6TbqxHuuf2mrTMmPxfu5+vbXIvH73vVrfu2p2e21uKxT+fWn4CaRjurtXrsIH+1xYKJ1jaZX5WmdU125Gl1HJGKy83xtz3f/MrBT7bal3/Uskp0HiJyG/u2vQHr+jzSBk+/G9dXrwV7Wa9uew+nr0l7a8YrXbQqWABIiI+zavXYp3PrsyGLWdH89dy4KGf75fPK1N2HzFv+81xQs0N5pkitj+lue7J8k/o/fklSv462TW+MyvYJ9ucN44l0Ss064rN++LTEuEP5vr1Eh9FKs4T4goUfzspqn9y2B9xwCaPF4r77tejytXwAUtvmjtQdC0uDv3u9fENYkKLZM2iRVu4I7NZ1WFL7SR9Hr3M4pCzReYjIdSoq5fT7pySm/2tU616H8n0TRefRQnh4mO3Lj+as3bn+l4j2yW17QocbAXot2ZN8Bna19zj8Y3H1zLG2jb4WOEUHcjVVhfzJL5G9Ot6XFPXhT5G/qiqOic5ERPVX65AOTfo4el2XYUntVu8Ibi86jxZ8LBb71Jee+vNw2mrHtVcO6APAV3Qmrei9ZAEAsiSF3T+4unvez8eLnritaoeku5+VALtDCnjt0+iruj/YVv5jW9BKALp89k6kV4qK4s9+iVjVaUhSwie/ROrypWFJkvDgkNu35O/fVPjIA3f3liRJ97vthijZk3wsiJk0orJj9g/Fe/7Vo/aA6DxaKKswRQyf2rTf5Y9fkr8n228ZAEV0JiI6p8o/tgWt7PpAkuXlj2P66nVn+LqrL8/MzVy3d8bk51J9zOZ40XncRZcfzPMJDVbbfDPViryjprT/PBMUuXOfOVZ0JlfLOWppMXhCyxZd21amvzUupzY8yMGZRiLPouzL8Vt3/5TEVkeKLf1Eh9FKu+Q2hz59b+aRls0Sdfns/HwMWbInxUU52695r8zxZ5p5430Tg9oeOW7S3dDD5t0B7Xo80AbX9SpbP2VEXpifRW0rOhOR0R0rM299ZFpi0I4D/n1EZ9FKXGx08Qdzp+7v3SM1FYBml+N4OkO9XHwW5t7tHd33fFNqXjipYn1wgForOpAWfloX2rPTkOSWs7+K+kNRcER0HiIjqqqWM0e8nri990Ntuuw44H+J6DxaCAjwr5w345WVuzYu9endI7U76r8zrAss2RMkIGDwpTU9s34sKX16SNUWk0l/d7BVFFje+qZx/87DkoJ+WBO2DEC56ExERuBUpPx3f4ha3XlYUptlm4M7ic6jBbPZpDw34bH1+Xs2VNx9+039XLEzrAcs2dOYTWrjp4dWpub9VJw1dFBNpug8WqiqloPGzY27otfwNhV/pgf+CkCXz96JRDsxg7iy85CkiBmfN75MrzvDNw66cmveng0HJ4x8uKcsy7q9FWl96PID7goBfmg2e1xF0r5vS3Z0T3HkiM6jhePl5tj7JjW76roJrbJzj1rWANDds3ciQew79/uv7v1wG+dT78T10+sMYp9eXXcfTl+z45N33+ji76ff2+w1hKFPfLoQTSKUjsve0vdM475s31YDH7+k1WUdbZtmj8w2BwUour1tFpHGTp1BvEx0GK20aBpf8On77ptB9GZ8JnthDDHTuHpHYLcuw5I6Pjc/dm0tZxqJLorVJmfofQYxIjys9OtP563c/qd+ZxBdjSV7cXQ/0whA/r/l4X263Ne28YmZxqOiAxF5spMziKn3J6XofQbxUNpq6cqBfftBxzOIrsaSrQcjzDTWOmT/1z6NvqrL0CTT0o0hywBUic5E5EkMMoOoPjzsrnVGmkF0NZZsA5w603hlz9r9ovNowVYtRzz6RsIVAx6/5MiJmUY9PnsnuhiGmUHM271+37RXnu5lpBlEV9PlJ4e7hQarbb5+Td8zjXlHLc0HT2jZPKVFVdp7T2ZbG4U6eovORORmnEGki8aSdSEjzDRmHPRv3/uhupnG1x7JC/X1UZNEZyLSmhFmEONjY4o/fvv13d27duwBA88guhpfLna902caa0QH0sJP60J7drwvudXUz5sscyrQ5XXEREaYQQwMDKicN+OVlRkbf/Pt3rVjbxh8BtHVWLIaOWWmsUzPM40f/NDois5Dk8N/WBO2TOVMI+mEEWYQLWaz8tyEx9bn7V5vOzGDGCg6kx6xZDVmhJnG6hqpbqbxwTa2EzONunz2TvpnpBnE3D3rD52YQYwSnUfPdPkJ5In+PtPozBadRwvFVnPMfZOaXXXd+FY5WUd81oEzjeQ9DDGDeFnvbrsPp6/ZeWIGsaXoPEbAE5/crG6msVTdfci85fbngpoezDM1Ep3J1fbl+Lb616jWrfq0t218c3S2OThA4Q3jyVPVzSBOT4w/lMcZRHI9PpMVQ2rb3JG6fWFpiJ5nGtemBXZPHZbUadyc+FV2h7RXdB6iU1kr5fS/ZhDzfBNE59FCZEQ4ZxAFY8mKZYiZxh/WhvbtdF9Ss/d+jFyuqigSHYiM7a8ZxGFJ7fQ6g+jv52ef+doLGw/uXCVzBlEslqwHOG2mcbseZxrtDsln+sLogZ3vS7L89GfofwFYRWciYzHCDKIsy+rDw+5al7dnQ+H999zWXZIk3V2r721Ysh7kxExjpxMzjftE59FCZY0cPvrN+Gv6PX5JWcZBvz/AmUbSniFmEAdfc/mu3Mx1+6a98nQvs9nEGUQPoctPNm9nhJnGgqOW+JueaRmf3Kw67Z3xWcejIx39RWci3THEDGKHlLaHPv/ozeLEuNhU0Vnon1iyHuzkTOPGDPOfd78Q1E6PM427Dvu17/toG1zdw7p12qM5fn4+arLoTOT9TswgBnMGkUTjy8Wez9w9xdFb7zONv2wI7tJxSHLruplGSZfXEZP2TptBbC06jxYCAwMqP5g3be2uTUv9OYPo+ViyXuLkTGP2jyWlzw2rXK/HmUZVrZtp7HBvUuQXSyN+h4oy0ZnIOxhtBvHWG67tA8BfdCY6P5aslzGZ1CYT7q3qqeeZRrtDCnzxg5jLewxvU8mZRjoXo8wg3nnL9Tvy9m7I5Qyi99HlJ6QRnJxpPPBdybYe7R0HROfRQsmJmcYrRrbOOZDruwqcaaT/McQMYt8+PTKzMtbufGf25I5+vr6JovPQxeOJT14uKkzpvHROma5nGrMLfVpdM65Vq94ptk1zxubIwQFOnkVpXIaYQWzTpmX+p2+/UdC2Tcsu4EqTV+MzWX34a6ZxyRvWtaHBqk10IC38mRHYLXVY2y7j5sSvqnFIe0TnIfcy0gzipuXfR7Zt0zIVLFivx5LVF5++XWr7ZP1w3K7jmUbph7WhfTsPSWr+3o+RyxXONOqeEWYQA/z9ajmDqE8sWR06daZxzB1VG/U40+hw1s00duFMo24ZaQYxd/eGIs4g6hNLVsd8LIiZ+FBldyPMNPZ+uE3Ztr0BSwE4RGeiBjs5g+ij6xnEa6/IyM1ct58ziPqmy09e+ru/zTQ+GxSxc685TnQmVztWao7/zwvN49s2q06bPz77eHSkvb/oTHTRlN1ZfhuHT0tsceS47mcQSxLjYnmfZQNgyRpIXJSz/Zr5+p5p3H3Yr33fRy9Bv462TTNHZ1uC/BRdDhPozSkziD1FZ9FKQlzM8Y/mvb6HM4jGwpeLjccQM40rdwR2Sx2a1G7q502WOZ1Slug8dGa2KuPMIGZsXBrAGUTjYckalEFmGs0f/NDoig5Dkhp9+FPkr6qKY6IzUR2nIuW/tThqfer9SW11PIPomPj0qNV5u9dXcgbRuFiyBve3mcbB1btE59GC3SEFvvZp9FU9HmxjPzHTWC06k1GdOoM4e1Hjnoqiz+tA77zl+h35+zbmj3nsgctkWdbdQAxdOJYsATgx0zjWlqznmcbSirqZxsufaJ27J9tvGQBFdCYDsW/fE/Bn74faSDqfQdyVlV43g+jr48MZROKJT/R3p800Jh7MM+lujDynyKfV4AktW/VMqdw4d0y2HBLo7Co6k46dOoPYW3QYrbRp0zL/8/mzclu3at4NXGmiU/CZLJ3JyZnG0BMzjRWiA2lhfUZA9673t009MdO4W3QevSm1ybuGvtpsr85nEEtOzCA2at2qeXewYOk0LFk6l5MzjQ69zzR2vDe5xZxvopYqCgpFB/J2tQ7p4KSPo9d1vz8peW1aYBvRebQQ4O9XO2f6S2sP7lxlOjGD6CM6E3kmliydlxFmGhUFPnO+avyvLkOTfE7MNJaLzuRtFBXFn/wc+WenIW2bGmAG8eiQO2/uwxlEOh+WLF2wv8802veKzqOFkzONPYe3KedM4wWznZxBnPRJdG+HU9bldaA3DrpyW8HeDftOzCDqbjWNtMETn+ii1c00lut6prG4vG6msU2z6rT3ONN4NoaYQezYLungwg9nl3IGkeqDJUv1ZoSZxj0nZhov62jb9OaobFOgv8JvtKibQXx4etOQnfv9dDuDmBgXW7jg3Rl7Uzu37w2gheg85J34cjE1lCFmGlfvCOzWeWhSh5c/ivnVoUiHROcRpW4GMWFH74fadNm536+V6DxaODmDmL7xt5DUzu0vA2cQqQFYsuQSRphpBGD+7NeIqzrem9T4xEzjUdGB3OXvM4ghHUXn0QJnEEkLLFlyKSPNNHYZmuRYuS1wCYAq0Zm0csoMYiRnEIkuHkuWNHHqTGPPdvb9ovNowVYtxzw4tdmggf+badTTdcS1p80g+ooOpIV+l/bMzEpfm8YZRNIKT3wiTUWFKZ1/m1uu65nG3CKf1oMntGzdsVXVhvkTsuzhIc5LRWdqgLoZxGmJ8Yfy9TuD2PaSVgUL35uZc2KliUgzfCZL7mCImcYd+/179Bjets+4OfGrau2S171U/rcZxHx9ziA2iowo+frTeSs3rvgukgVL7sCSJXc6faZRj0MP0g9rQ/t2GJLc6vUvGv9XUZEtOtD5GGkG8cCOlWbOIJI7sWTJ7U6ZaTyq55nG+d9HXdPlvqTgEzONZaIznc4oM4hjHr1/Y96ejSUnZhCDRWciY2HJkjBGmmns8WAb68bMgJ8AeMJ1xIaZQczbu2HfxGdGdzeZ5Cai85Ax8cQnEu7Umcbbnw0K37HXHC86k6uVWM3xd7/UPL5N0+q09yZkH4+OtPeD+2+LZogZxJ7dOh9a8M4MW0x0486isxCxZMljxEU526+eX+ZYl2beMGRiUJIuZxqz6mYa+3ayrXrs5sJenVpXWdxx3E2ZAVWvfRZdmHbAX7cziE3j44588t6MPZ07tLsMfJWOPARLljyNuVd7R48935RWLlnju/7hyYGdrJWSn+hQrrZqe2DfVdtbYGCqFU/dcwTNoms1OU76AX9MXdgEG3YF+gNopslBBAsLC6l8a8YrOwdffXknALp9hk7eiT/tkUf630xjcenE4VWrTSZVEZ1JC8u3BOO6sa3w/PuxOFbqup95C45b8Pz7sbjl+RbYsCvQZY/rSSwWs33i06NWH05bUzn46st7AtDdD2Pk/Viy5NFMJkSPubPysvyfi7OGDa7OEJ1HC3anhEXLwnHFqNZ4/YsmqKyu/5dluc2E179ogitHtcaiZeFQdPijiSRJuP+e29Ly9248whlE8nQsWfIK/r5oPmusLUXPM42V1TLmf98IV41phUXLwuFULvy8KLujrqivHN0K879vhBq7Dq+LAtD/0p67stLXpM187YX2vj4+uhzMIH3he7LkVU7ONO7LNm289engZgfzTI1FZ3K1wuK6l3oX/haBCXcV4tKOZx/IUlVgyZ+heOPLJsg76pZzqIRo26ZV/sL5M3O50kTehiVL3khqnejsvn1hae2qrT5r73oxqEOZVX8jA7uz/TBsSlMkNavGbQNL0DWpEglRtXA4JeQWWbBmZxD+b3k4sgv1O17UKDKi5ON503f1vbRHDwCxovMQXSyWLHkzn75davtk/1hc8slPvmvHzQrqUWPX3+d05mE/vPRhjOgYbhXg71c79eWnN917x787SJLUR3Qeovrie7Lk9SQgfMh1NX30PNNoFLIsK3UziBtKOYNIesCSJd04OdOYu6Q485petemi89DFuXHQlVvz9m44UDeDqL/32smYdPfSGlFwoJq0aIpV1zONetKze+eDC96eURUT3biL6CxErsZnsqRbJ2Yao1e8XbY6ppHzuOg89HdN4+OOrFjyxerfFn/aLCa6cYroPERaYMmS3plTkxyX7f661H/hpIr1wQFqtehARhcWFmL78qM5a9M2/BqW2rk9d4ZJ1/jJTYZglJlGT3bKDGL1tVcO6APOIJIBsGTJUIww0+hpJEnCg0Nu31Kwb1PBiRnESNGZiNyFJUuGdOpMY48Uxz7RefRqwGU9d2Wlr0mfMfm5VB+LJVF0HiJ349nFZGhRYUrnpW+V6XqmUYSUpEuyPnt/Vn7LZom9RGchEonPZIn+N9MYtuQN69rQYNUqOpC3ahQZUbxk0Qdr1y37No4FS8SSJTrVyZlGx5zxFWt9LXCIDuQtAgP8q+bNeGXlgR0rLX0v7dEHfJWMCABLlugfONN44U7OIObuXm+9+/ab+nEGkejvWLJEZ8GZxnO7cdCVWwv2beQMItE58CUdovP420zjM0FhO/aZDX2z8F7duxz6dP7MisZRkZxBJDoPPpMlukBxUc72q98rizHqTGOzhPiCFUu+WP3r4k+aNo6KbC86D5E3YMkSXZy/Zho/fdm6MThArRUdSGvhYaHWrz+dt3Ln+l/COYNIdHH4xUJUDxIQcEPf2u6bPinxGTq4BiaTKjqSy/lYLBh6963YsurH4CsH9u0HziASXTSWLFEDxDZSMXtsBdZ/WIab+uvjSa0kSbhp0FXYvPJHzJ76IhpFRoiOROS1WLJELtCmqRMLJlrxwxvl6NDaKTpOvfXo2gm/ffcpFrw7A82a8ja8RA3FkiVyof5d7Fg9vxQLJlrRNMZ7yvaSVs2x4N0ZWPr9Z+jRtZPoOES6wUt4iFxMkoCb+tfiuktr8eH3/nj1I3+UVXjmokVMk8Z4aswjuOf2f8NsNomOQ6Q7fCZLpBEfM/DwzVXYvrAED/27GrIHfbX5+/ni2fGPYduanzD07ltZsEQa8aAveyJ9igxVMf0JG358oxxNIsXfK75l86ZY+sNCPDnqYQQE+IuOQ6RrLFkiN7mskx2/zC5HWLC4y32aJsZh+ZLP0SGlrbAMREbCkiVyo5bxTrz/nJg76fn6+OCz+TMRHhYq5PhERsSSJXKzK3vY0a+z3e3Hvf2WwejYPtntxyUyMpYskQAP3Vzl9mMOH3qn249JZHQsWSIBBnZ1uHWKMTa6Mdont3Hb8YioDkuWSIAAPxWNwtxXss2aGvrufETCuLVkVfFXLxB5DH9f95Wsn5+v245FRP/j1pKV+LyZiIgMhLVHRESkEZYsERGRRliyREREGmHJEhERaYQlS0REpBGWLBERkUZYskRERBphyRIREWmEJUskiElGkbuO5e/nm+OuYxHR/7BkiQSRgWp3HcvPz9dthU5E/8OSJSIi0ghLloiISCMsWSIiIo2wZImIiDTCkiUiItKIWXQAT1VdC6xLsyDjoAmH80ywOyVYzCqiI1W0jHegRzsHYhvxLvRERHR2LNnT7MkyYdYX/lj8hw8qq6Vz/tnWCU7ccnktbr+yBs1jnW5KSERE3oIvF59QVSPhubcD0HNYKBb+4nveggWAfTkmTPnYH53vDsOQicHYud/khqREROQtWLIAissl3DA2BG8u8ofTef5yPZ2iAIv/8MFlD4Zh+JQgFB7nPysREbFkUW6Tcc3IUKxPb/gr56oKfPmrL7oOCcPXv/u6IB0REXkzQ5esqgJDXgpC5iHXvsxbViFh2CtBeHByEKou4GVnIiLSJ0OX7IKffPH7Rotmj7/oN19c8WgIcgsN/c9MRGRYhv3ub6uSMHF+oObHSTtgxuUjQrEniydFEREZjWFL9v3v/VBc7p6XcguOy7h2VAjSD/KKKSIiIzFsyX68xL0nJh0tkTF4dAj25fAZLRGRURiyZLfvMeNArvvL7niZhJufDOYlPkREBmHI7/bLNvkIO/bhfBPufD4YtQ5hEYiIyE0MWbIbM8S+ZLtplxnPvKX9SVdERCSWIUvWE05Amr/YD0vWaHf5EBERiWe4knU4JRw55hkDEY9PD0ZRseE+BEREhmG47/BlFYBF/BNZAHUnQj01N0B0DCIi0ojhSjYyVEXGolKMvrMKvh7wau3Xy32xcpsHBCEiIpczXMkCQKMwBS8Nr8SGj0txy+U1kAX/K0x4M7Bed/8hIiLPZsiSPalFnBMfPl+BdR+U4qb+tcJyZB4y4f9+F3dZERERacPQJXtSUnMnFky04re5ZejdQcwFrFM+9oedz2aJiHSFJXuKnu0c+OXNMnw/oxwdL3G69diH801YvJzvzRIR6QlL9gwGpNqx6t1SLJhoRat4xW3Hnfu1v9uORURE2mPJnoUkATf1r8XGBaV4c1wF4qK0L9vte8zYnOkh1xcREVGDsWTPw2xScd+gGuz4ogSzx1agcYS2Zfvlr+69OxAREWmHJXuBfMzA0ME12PZpKZ4aUoVAf1WT43yzwpcnQBER6QRL9iIFB6p4ZmglMhaVYPSdVfBz8ZU3x8sk/LmTLxkTEekBS7aeIkJUvDS8Els/K8HQwTUwm1z3zHbpep5lTESkByzZBopvrGD22Aqs/6gMN/arheSCV3p/38iSJSLSA5asi1yS6MQnL1nx54dlDV6Pyswyw2rj+7JERN6OJetiKc0df61H9elYv/UoRQG27eX7skRE3o4lq5Ge7Rz47+y69agOrS5+PWr3YZMGqYiIyJ1YshobkGrHqvl161Et4i68bA/ms2SJiLwdS9YNZPl/61Gvj7KhSeT5By2yCvihISLydvxO7kY+ZmD4jdXYubAULw2vRFjw2S/7KbXyQ0NE5O34nVwAfz8Vo++swq5FJXhpeCWCAv5Ztjy7mIjI+7FkBQoKqCvbrZ+V4sEbq+FzygnFdvfeaY+IiDTAkvUA0REKZoyyYfvCuvUok0mFr48228hEROQ+LFkPEt+kbj1q7XtluK5PwwYtiIhIPC4eeKDkFk4kt6gSHQMAoKpAxiEzMg+akFsko7RCgp+PioQmCprHOtGlrRP+vnzWTUR0JixZOqOC4zLmfeWH/1vqi4LjZ3/Bw8cM9Ghnx80Da3DTgFqEn+OMaSIio2HJ0t84nBLe/NIPry0IQPUFvGJd6wBWb7dg9XYLnp6nYsh11XjiP9WIb6ztze2JiLwB35Olv9iqJPznmWBMfO/CCvZ0VdUS3vnGH53uDMeEOQGoqORlSERkbCxZAlBXkINGh2DphobfZq/WAbzzjT+6Dw3Dqm28bR8RGRdLlgAAw6cEYctu1757kFso4/qxIXhxfgCcTj6rJSLjYckSFv3mi+9X+mjy2IoCzPzcHzc/FYyyChYtERkLS9bgqqolPPtOgObHWb7Jgn89FnrOM5WJiPSG3/EM7qMffVFU7J5Pg92HTfjXo6HIKuBt/IjIGFiyBvfhj35uPV72ERk3jAvG0RJ+6hGR/vE7nYHt2GfC3mz3P6s8mGfCzU8Fw1bF92iJSN9Ysgb2+0ZtTna6ENv3mPHgq8FQORBFRDrGkjWw9eliB7+WrLFg5uf+QjMQEWmJJWtgafvFr2q+8qE/NqRzsIKI9Ikla1B2p4QjxeLfE3U6JTw4OZDvzxKRLrFkDepYqQRV9YxiO5xvwisfan+tLhGRu7FkDSomUsH6D0txU/9aSB7Qte9+64u0A+JfviYiciW3lqwKiaXuQdo2c2LBRCuWzi3HZZ3sQrM4nRKenMNns0SkPVVV3dZFbi29qho51J3HowvTPcWOn2aV4/sZ5ejcxiEsx5rtFixzwV2AiIjOpabWHuGuY7m1ZMsqcIk7j0cXZ0CqHX+8U4ZFk61IaS6mbF/+MIDXzhKRpqprauLddSy3lqzdIYW783h08SQJuKZ3LVa/X465422Ib6y49fjb95ixfBOfzRKRdnT7cjF5D7NJxb3XVWP75yWYPbYCTSLdV7bzvuFABRHpA0uWzsnHDAwdXINtn5bi6fsqERyo/Wu5yzZasD+Xn5pE5P34nYwuSFCAiqfvq0LaFyUYfWcV/H21K1tVBRb95t67AxERaYElSxclIkTFS8MrsfWzUgwdXAOzSZuy/fxXX54ARURejyVL9RIXpWD22ApsXFCKfw+ocfmgRU6hjO17OU5BRN6NJUsN0ipewccvVmDdB3XraagrlwAAH+tJREFUUa70G6+ZJSIvx5Ill0huUbce9d/ZZejRzjXrUcs2smSJyLuxZMml+nR0YOncuvWoDq2dDXqs7XssqBG79khE1CAsWdLEgFQ7Vs8vxYKJVrSMr1/Z1tiBDN40gIi8GEuWNCNJwE39a7FxQRlmjrEhph6DFuksWSLyYixZ0pzFpOL+66uxfWEppj5WiajwCy/bQ/n8FCUi78XvYOQ2/n4qHrmlCls/LcX4u6sQ4Hf+C2EPs2SJyIvxOxi5XWiQiucfqETGorr1KD+fs//ZYqsH3FGeiKieWLIkTGToifWoT0swdHANTGdYj7La+ClKRN6L38FIuPgmdetRf75fhkGX2v+2HlVr5zNZIvJeLFnyGEnNnfh8UjmWv12G/l3qLpD19eGAMRF5L14fQR4nta0DP7xRjhVbLFi6/hxv2BIReTiWLHmsAal2DEjl5BMReS++XExERKQRliwREZFG3FqyDoc7j0ZERPRPquK+EyplAA27VcpFKC7nE2ciIhKruLTMbceSAVS662C7Dpl46zIiIhKmprYW+/YfdNvxZBUocdfBbFUSFi/3ddfhiIiI/ub7Jb+hqrrGbceTJRVH3HY0AG994w+nkys+RETkXqqq4t2PvnDrMWVJwiF3HnDHXhNe/cjPnYckIiLCG3Pfx6atO9x6TBnAXrceEcCMhQF47zsWLRERuceP//0dk6bPcftxZUWFe2sdgKoCY2cF4v5JQSjlrcyIiEgjVdU1eOm12bj3odFwOhW3H192StJGtx/1hK+W+aLDneGY+bk/qmtFpSAiIr1RVRWLl/yK7gOux4w57wkpWABZclV+eg4kuO985tOUWiW8OD8AXe4Ox0c/+kIR8u9ARER6sWL1Olx29W0Y8tBYZGXniQsiqavr1iEUaam4FHVyi2SMnBGEAY+EYvV2i+g4RETkZXbvPYAhD43FDbc/iJ3pmaLjAJCWyQAgmZw/iI5y0rY9Zlw3KgQ3jA1BxiHeJIiIiM4t/0gRRj75EnpdcRMWL/lVdJyTnKrT52cZAMpD5WVw4yjFhVixxYI+94fioclBKDzOOUYiIvo7m60SM9/6AKl9B+Gjz74S9b7rGUmQVlQc2Xa0rr0yMmol4EvBmf5BUYAvfvNFx7vC8OL8AFRU8kxkIiKjszsc+Oizr9CxzzV4cfJM2GxuWwe+cCo+AU65C49Twrvi0pxbZbWEmZ/7I/WeMHz0oy8cXIwiIjKkFavX4dIrb8HIJ19C0dHjouOcTUm5Kfhr4JSSteVl7ACwQlikC1BwvO7kqJ5DQ7H4Dx/RcYiIyE22bE/DNTffhxtufxCZe/aLjnM+7yJ3XRVw2v1kZUhTxOS5OHuzTRgyMRiDR4dgx16T6DhERKSRA4eyMOShsRg46E6sXb9ZdJwLUa3YMfvkf/ytZMvy05cC0ir3Z6qfldss6PtQGIZMDEZWAcuWiEgviktK8eLkmeg5sO6MYVV1343WG0Z6y3Y0468b7/zjtF1ZxVgAnnOK1nmoKrD4Dx+k3hOGJ+cGoNwGb/lIEBHRaaqqqzHzrQ/QodfVmPnWB6ip9ao5wBJJVief+gv/KNmygvTNkPC++zK5Rq0DePtrf7S/PUJ6b7HfUVWFV31kiIgMTvnp1+XV3frfgBcnz0S5tUJ0noumStIz5bkZxaf+2hkvQDVZLE8CELhFVX8lVgljZwdGdbwzvHh/jmkFwGe2RESeLDfvSHrfq2+13THsCb/sHK+sHgBYXZGXPv/0XzxjyZYe3l4qQxoKL3rZ+HSHC+ToLveEDbh+TMjmsgppi+g8RET0d5VVVYceePypXcndr2i3PS0zWHSeBiiXnaYhOENnnnVKqSw/fSkk9TVNY7nBH1st3RIGRXR+8NXA32sd0h7ReYiIjM7hcBZOeWPe5rg2PZr937dLkkXnaSgV0vCywp2HzvR759wrtOalvABV+lmbWG4lL1rqd3nMVeFN5yzy/01RUCQ6EBGR0aiqavvymyUb4tv0CJ8yY15Xp1PRwbKQ+npFfvqis/3ueUaBv3L62u23q5C2ujqWCHan5Pfs2wFXxl0bYV78h88SAFbRmYiIDMD+54YtGy/pMsAx/ImnelRWV+tlTWixNX/Xk+f6A+dd3j92bI8VTvkaAJ5w3yCXsFVLEUMmBg9KuT28JO2A6XcATtGZiIj06FBW7vbUftcfvfrfQ7oXFh0LFZ3HVSTgd6uP7U6c59ylC7q9TUXhziLFjoGQpHSXpPMQOUfkxD73h11+6fCwzLwi0x+i8xAR6UVJWdnuf9/18L6Ova/utG//wVjReVxJAn4Pgt/1OHy4+nx/9oLvIWc7mnFEktR+ANY0KJ0H2rnX1C7ptrD+Q18KWl9Zo59n7ERE7lZdU5M15plJ25qlXNp22R9rWovO42oSpK/KA2quy8/fckG3/rmoG7WW52YUWwNqrgCkj+oXz7N9s8K3Z+w1ka2fezdgmVNBjug8RETeQlGUkvc/+XJzQtte8e8v+LKz98wgXjBVAl4pz0+/Hfv311zoX7r4u6Hv319jzU8fBkgPALBd9N/3cIoC85tf+F/R5MrIiAVLfH9RVZSLzkRE5KlUVa1a8svv6xJT+viNeXpS15raWj0OyR8HcEN5fsYLuMj9iIsv2ROs+ekfSLLSGcDq+j6GJ6t1IPDx14OubnlTRPUfWy2/Arjgn1yIiAxAydyzf2vHPtdU3nn/yF7l5VZ/0YE0ssRpUdpb8zN+rM9frnfJAkB5buY+a35GP0C6H0BhQx7LUx0rlRpfPybkqu5DQ/MOFchrwZlGIjK4/CNFOwcOuiO7x8AbuxzOyo0UnUcLKpCtSrjVmp8xuDIrs6C+j9Ogkj2ZxZqf/qFvraO1pGKSClzQm8HeZvchc4uOd4T3uWFcyPayCmm76DxERO5WVVV98P7HJuxqmzqww+Ztac1E59FIOVTp2RD4JVXkZXzd0AdzRckCqLuetrwg43nF5GgNCfOh02tPV2y2dE4YFNFpxLTATbUOKUt0HiIirTmdSsG02e+sj23TvflXi3/2+hnEs7BDwnzFIV1iLUiffKFnD5+Py0r2pMqcPfnWvIyHVFVqL0H6ytWP7yk++9mvW8zV4bFvfB6wWlFwVHQeIiJXU1XV9tX3P6+Nu6R7xKRpc3vqYwbxnyRIy1Sn0sWal/GQrSjdpW99urxkT6ooSM8sz0+/TZVwuV5mGU9nd0iWifP9L4sbFBGweIXv/7d359FR1XcbwL+/mcm+TlyAhD0BsrAmEggBU1ApLxKhCohSRcRTcEFFK0JfQEQsCpWKr7VoXQ60Ws/ra2trxaVIQWQRCUuSm4Q9BOYmYUKWuZNJZjJzf+8fJIDUss6d3507z+c/ziH3PucAebiTe5+7hYhaRGcCAPCDtl2792/vM2S0d9Yj8/Ndra0RogNpgtMuztUCh1x6m7O2XJOxJc1KtoPTJm1yyqU3ccanEqOjWp9PhGYXi5nxfGxB/7utjUXllq1k0I/KAcD4qmxy0U0/Kay9deL0EafsxplBvMBxxmiGUi0Nd1aXf6PliTQv2XbcaSv7SEmkDMbZk0TUGKDzBlRVranL6IcTRo36RUKlzW7+XnQeAIDL1dDUVP6ze2cf6p87NufgoWNdRefRSD0RLVCi3f0cNmk9BeBpkUCV7BmS5HFUl65hJkolopeJ6JK7j8Fo/0FLasaUxKH3L43d09zKDorOAwDwn7g9nsr5i1fs6Jk1MuPrLdsMN4PYzsOJv2YOD0tVZOnlK1lsulaBLdl2jpNSvSJLCyxE/YjRH8mgz55+sjkiO2V8Utr812J2eL3MJjoPAEAHVVUb3vnj/+5K6Tus29p3388z4AwiERFnxD4y+czpTrnsicbKfQH/FFVIyXZokKUqxSbdz1QaRpw2i8yiFVUl09q/ROZ1nWC9Yd1nEdsw0wgAgrm+2vTNlu79R4bNW7As19PWZsQZRGJEX/uI5zjk0qlNtcXHROUQWrIdHDXS90q1NFol9TYiKhGdRwuuVhY+d1Vsfu9JSb6vdoZtISKP6EwAEFLUigNHigbljXNNvu+RAkeTI1Z0II2Uc8anOmTpVpdctld0GF2UbIdmuXyjIkuDGaMZRFQjOo8WTjcx6+QF8QVDH0isO1Rl3kUG/agcAPTDXnd6z5jCe47mjpmYc6zq5PWi82jERpxmK3LmAKetTDcbDboq2Xaqwyatj/aZ04hoAREpogNp4UClOTnn/sTcwqfiKxocJkNevQOAWC0trUdnPTq/NHVQQfbuPSVpovNopJmIXo7weDOUauktoo909QilHkuWiIhqa4ubFVl6mavhqZz4a0TkFZ1JC1v2hGX0uMM6YM6K2P3uNoZ32ALANfvBDOInG/qLzqORMzOIbZSmyNKCuroDurwg023JdnDW7LU75bIniEyGnmn84MuIQcnjrF3aZxrrROcBgOATkjOIdknXP1rUfcl2UOSSCodcOpWI5RPRdtF5tNDmY5alb0WN6jkpKfrTbyN2kkGfIwYAv8MMok4FTcl2UOTS7YosjTTyTGOjg0VPXxQ7fMDdSU3tM42q6EwAoE9VNrkou2ACZhB1KuhKtt3ZmUbiNJvImG/BOV7LOo1+OGHU2LkJVdV2kyQ6DwDox/kziIcPV2IGUaeCtWTPkCSPUi29ZbKY+pGBZxp3llh69ptizZq+OLbM1Wo6LDoPAIjj9niOzV+8YkePzHzMIAaB4C7Zdk1VJQ2KLC3wEuvb/sJ4Q368+unWiMzk8dbUpW9G7/Kp7JToPAAQOKqq1v/+7T9t79JnaPe1776fJzqPRoTPIPqbIUq2Q4tcekKxSbNNnA0jon+JzqMFVSW2+s9RucnjrdZ3Po3cxbkxnyMGgLNcX236Zku3rBERzz730giv14cZxCBiqJLt0FRduluRpTHtM43FovNooaWVhc17JSY39WdJvm/2hG8jgz5HDBDC1JKyip0ZQ29pnnzfIwWKwxkjOpBGdDWD6G+GLNkO7TONQ9pnGqtF59FCXSNLnPBUXP6wBxLtFccsRaLzAMC1s9ed3jP69nuO5d82ebhNrr1BdB6N6HIG0d8MXbLtOmYa+9CZmUZDvgWnvNLcJXdmQs4dT8dVNDgY7kQGCEJOZ3PFPbOeKE4dVJBdtK8kVXQejeh6BtHfQqFkiejcTCNRm6FnGjcXhaf3nJiUNW91TIm7jZ0UnQcALs3r9VWvXLN2Z9eMvH6fffH1QNF5NBIUM4j+FjIl20GRD9YZfaaRc6J3/h45IOW/kpJXvBdd5PNRvehMAPDvOOeNf/rwr1s6ZhBVFTOIRhNyJdvh7EwjM40gom2i82jB4yXTinVROb0mWaMw0wigK227du/fnjaowPTI04sLWtxuY84gMvo+2GYQ/S1kS7aDYivZocjSKM74VCI6IjqPFhoVU9T0RbHDB0yztmwvsewigz5HDBAE+JHKqh3ZBYW1t06cPsJ+uj5edCCNnJlBtEnDgm0G0d9CvmTbnZlp7BJp7JnGGpN13NyE3LGPJZysqcNMI0AgNTQ2lk265xeHhuSPzzt8+BhmEEMESvZ8RUVtITHTWGrp3neyNevexXEVzhZmyJcsAOiF2+M59vSvlhf1yBqZuemb7X1F59GIYWYQ/Q0l+yNCZabxH1vD07tPsPZe/m50sc/HDHn1DiDK+TOIf1j3YY7oPBox3Ayiv6FkL+LcTKMplww60+j1MVq5Pmpgyu3WxPaZRqfoTABBzrXhq39t6545IgoziICSvQxN1SVFRp9pdLXPNGZMsbItey37iMjQD4gDaEAtKavYmX7TmOZpM+fmOxRnlOhAGjH0DKK/oWSvQCjMNMp1ppjCeQmD82Ym1mGmEeDyVNee2l8w/u6T+bdNHi5Xn8IMIpyFkr1yqsMmrY+jyDQy8EyjdMzcKXdmQs7UhXFV9U0MHwUB/Ains7l82oOPl/TLHjNo736pu+g8GgmpGUR/Q8leJVkucoXCTOMXO8K795qU1Gve6pgSt5fZROcB0AOv11e94pU3irpm5KVv+HLTANF5NOINxRlEf0PJXqNzM43m/oafaRyXlPzqnyP3qSo35NU7wKWcP4O4YvUbOQafQRwSijOI/oaS9RNFLj7gkEunMqbmkXFnGtmSN2MG9554XeRfN4cXERGehYNQ4dn+XdEuzCDClULJ+pnDVr7T6DON9QoLn7E0LmfANGtLUbl5D2HVBYzrzAzizRNOjbtzRi5mEOFKoWS1ceFM4ynRgbRwvMaUOPrhxOzbHkuole2mA6LzAPhTQ2Nj2R3THjo8JH983uEjlZhBhKuCktXSuZnGdDLwTON3pZbO6VOs/e5dFHeg2YU7kSG4tbrdZ2cQN2/d2Ud0Ho1gBjFAULIBcHamkZn7tM80GvIW+H98G96ve6G117I/xJR7vey06DwAV6JjBjG5by5mEMFvULIB1GIrPqnYpNlc5YOIsw2i82ihzcfoN+9HZnSdYLW+9UnEHs6pWXQmgIvhnGMGETSDkhXAWVMmKdWlt7fPNO4XnUcLrlZm+uWrsdmZU5Mw0wh6pZaUVezMGHoLZhBBMyhZgdpnGrPb70Q+LjqPFmx2Fl04L2Fw3oOJDumoeZ/oPABEZ2YQbx43FTOIoDmUrHiq01b2URxFZpKRZxqPmq15DyYOvnth7IkGB26OAjGczubyaTMfL+6XPWbQvpIyzCCC5lCyOnH+TCOduRPZIzqTFj7fEdGt16SkXnNXxR5q8RCWZCAgvF6ffHYG8atNA0Xn0QhmEHUIJaszinywTpGlBcR8A9pnGg333JqqEq37LKJPz8KkTms/jixRVcI3A9AE57yhfQbxOswggggoWZ1SbBUH22caRxDRt6LzaKHFzdj8/4kZkDopKfLjTRH7ODfm1TsI0TGDaMYMIoiEktW5jplGIrqDiA6LzqOF0w4WNnNZ7OCc+xO9eyssZWTAq3cImJCYQeREVZhBDA4o2SChyNKnSpfITCPPNB4+YY4umJOQ+dO58Xab3XRIdB4ILva6+n0/nXTfwVCYQXRGu/tiBjE4oGSDSftMY2QbpTJizxNRi+hIWthREnZjxhRrn5nLYquaXaZq0XlA3zpmEFMH3Tx4x/d7+4nOoxHMIAYplGwQstslp0MuXepl5r5Gnmn8eFNE9+6FiV3aZxrrRecBffH51NrVr7+9FTOIoGco2SD2g5lGos9E59FCx0xjt0Jr4nt/jyjj3JgvWYDLd24GMS9+6YpXR2EGEfQMJWsAzpoySZGlCUaeaWxuYaYnVsdmZk1NJMw0hixv0d6Srek3jWmeNnNuvuJsxgwi6B5K1kBCYabxpN0cWTgvYfCIWQnKgePmCtF5IDDaZxDl0RPuGVVdY8cMIgQNlKzxXDjT2CQ6kBZKj1gSh85ITJ+yIK623mGqEp0HtOF0NpdNe+AxzCBC0ELJGtTZmUbmM/RM45c7wzv1nmTt/tjK2MMtbqoVnQf8w+v1yUt//dtdKenDMzb8czNmECFooWQNTrFVnA6Fmcb1GyLSek5M6rTmw6jDqkpO0Zng6nTMICb3GXrd6t+9k8s5xwwiBDWUbIg4O9No4nlEtFV0Hi20tDJavDY6Le3OjplG3iY6E1w2zzfffretR+YI8yNPLy5o9XiMO4Oomn6CGcTQgZINMY6TZd8psnQzGXimsa6RWWYuix08dIbVW1Rhwc1R+saPVFbtGDLydvuEu2flNzoU488g1pRsEZ0HAgclG6IumGk05M8yD1aZo0bPSUgf93h8nc1uOiI6D/yQve703o4ZxCPHjqeIzqMRzCCGOJRsKDs305hm5JnG7cVh12dOtabOeSnW5nQxQ/6HIpi0ut1Hn/rV8j2pgwqGYAYRjA4lCyEx08g50QdfRKT0KLR2ev6t6ArMNAZexwxilz65Pd5e92G26DwawQwi/ABKFs46N9NIA4noH6LzaKHNx+iVD6LSe//Mav3zl5EVnBOuMDR24Qyiz2fcGUQTqTdhBhHOh5KFf+OskcoUWSpUSb2NEe0TnUcLjQpjs1fEpPe/22r653dh5USkis5kQB0ziK5QmUFsksv3iA4D+oKShf+oWS7f6JClnPaZxkrRebRw4pQp7K5n4zPGPJzgrLSZcXOUn1TXnto/6qdnZxCvF51HI5hBhEtCycKldMw0ZhFn/01EDtGBtLC73BI/cHpi6n3PxdY2KswmOo+/McYCclerw6FId02fI/XLHjNof6lhZxAVztiiOIrsixlEuBSULFwWWS5yKdWlv+ZqeBoj+h0RGXLo4W9bIjr1nJiU8ss10cc8XnZay3M5WkyRWh7/fG5PW4OWx/d4vPKS5auLumWOyPrn5m+ztDyXQG2M6A3uM6c5baUvynKRS3Qg0D9DTpaB9uJS0vsSmVcQpztFZ9FKTBSnF+a4Dj5Y2NrVZKJofx6bc3Jab7kuRlUD82+wZ49uu4u3f36Tv4+rqmr9m++9X7b4hdXDPG1tYf4+vo78lci8UJGLD4gOAsEFJQvXJC45K5+IVhFRnugsWul8nc/3+jPOQ2OHe9OIyOKPYx4+Yf4u+77EYf441mVyN54oPmgymQb46XgtX2zcsvuhxxcOcTQ5Yv10TB1iO4n4M4osfSs6CQQnfFwM10SRpW2KLOVzRlOI6JDoPFqoOW02T16QkD50RmLb3gpLmT+OOf+1mDh/HOcKRKz/8C/FfjgOP3Dw6O7BI8c3TZ3x6CgDF+wRzvhURS4dgYKFa4ErWfCfnJyw+OqWOZzYEiIy6h2lNGZoW8ObC52OTklqj6v5+gOVlqKhDyTk+DvXpURGhJ+yHdhlCwuzDLmar685Zd/781lPxO7aU9zH39l0pI5xttyRxH9PkmTI10NCYKFkwe+svXMSvG73s8T5k0RkyGcjGSO6f3yr/NJclyUmkt94uV+nuNjRfndZk50tLGA3PZ2vT1rPrbs3f9qHMdb5cr+muaXl0GNPL2n++G+fD9Yym2CtRLTGHB72ElaawJ9QsqCZqOT+3SzElxHR/WTQH02EW4gendp6aNFM1w1hYTzxYr/34HFLyS2PxvdrcrLwQOX7MSldOm3bu20Dj4yIGHmx3+fzqTWvvP5W5YpX3sj1+VRD/vkRkUqM3rdwWtQgS1Wiw4DxoGRBczEpWYMYp5WMaKzoLFqxxnG++CHXgXvGuhNjovjZq0RO5DpSZT6y6M3ouM+3h/fkOnkHi9lsbpg/b86XTz48s2dUZGQ2EZ0t/la3u2LdB3+pee7F1cNdLS1CrrgDgRHb6CV1vksu2ys6CxgXShYCJiG5/1iV+EoiGiQ6i5aiIzml3MCb27wUdrzGFK6XYv1PLGHmY1l90+xuj4+qTp5McbW0GvW1cx1KmMqfddSUfS46CBgfShYCzRSbknkX42wlEfUUHQZCikycnleqM9/BShMECkoWxMjKCo+vZw9zxpcS0UV/lglwjZqJ6PUIj/fFuroDiugwEFpQsiBUfNesJK7SfCJ6kogiROcBQ/ESo3dVDz3XbJdqRIeB0ISSBV1I7JLRw2cyvUCcfk74ewnXiBHbqPp885y15aWis0Bowzcz0JX4rlm5XGWriPjNorNAEGL0PfeZnnHWlGwRHQWACCULOhWTnHGriZl/S5z3F50F9I8TVZkYLXbYpD+e+SWAPhj1AXMIcs1y+Ualc0Q2cZpNRLWi84Bu1RPRAme0u6/DJq0nFCzoDK5kQfc6dRoY4zL7HiOi/yaiQA/rgz55OPG1lvDw5zCDCHqGkoWgEdV1UIqFe5cQp1lEZBadB4TgjNj/MZ/p2aba4mOiwwBcCkoWgk5sl/4ZJkbPc+JTRGeBwGFEXzNS5zfJ5XtEZwG4XChZCFoxKZm3MM5WMaKrenUbBI1yzvhzTlvZR6KDAFwplCwEOxabkjmZcfYyEfUSHQb8CjOIEPRQsmAMmGk0EswggmGgZMFQMNMY1DCDCIaDkgVDsiZndfcyWo6ZxuCAGUQwKnzzAUOL75w1lJtpFXEqEJ0FfgRmEMHgULIQEjDTqC+YQYRQgZKFEPITS1wX+4PE6Hki6iw6TYiqJ6KVSrT7VTp82C06DIDWULIQcjDTKARmECEkoWQhZEV365dsVi3PYaZRU5hBhJCGkoWQh5lGbWAGEQAlC3DWmZlG00pGPFt0liCHGUSAdihZgB8yxSdnTVOJVjCi7qLDBJnjRGyZImeswwwiwBkoWYAf0zUvKk51PE5EC4koQXQcnWsgopeV8OY1VFnZKjoMgJ6gZAEuIi4l/Tri5mcIM40/po0Yvcd94YucNXvtosMA6BFKFuAyxKWk92XcspwTn0z4d3PmjmEzLWw6UXpEdBgAPQv1bxYAVyS+a+YwrrLfENFI0VkE2UHEfqnIpdtFBwEIBihZgKsQl5xVSESriShNdJYAqeCML8EdwwBXBiULcLVycsLi5NaZxOgFIrpRdByN2BlnLzqqr/8d0Wav6DAAwQYlC3CNEroPsKpe9VkieoKIIkXn8RO8OB3AD1CyAH4Sldy/m4XxRcTpISIyic5zlfDidAA/QskC+FlClwE5KlNXEdFo0VmuBCO20WdiTzWfLCkRnQXAKFCyABqJSc641USmV4hooOgsF4UXpwNoBiULoC1TfErWzzmnl4ioi+gwFzjOGC3Bi9MBtIPXewFoi7sV+/6EyBvf9JnJS0Q5RBQuONMpRuxXipVmuI9IeEMOgIZwJQsQQLGdh9zAzG3ziPM5RGQN8OlPErE1kW18rd0uOQN8boCQhJIFEKBTp4ExLpPvXmLsQSI+XMNT+TjR18T4287OUZ9QUVGbhucCgAugZAEES+g0oLdq5ncy4uM4UT5d+7O2ChFt5oxt4B7+CR7FARAHJQugJ2lpEfEtYUNUMg8xcd5fJUplRN2I6AYiiqdzbwJqIaImIrIT0XHidJAYK1MZ391syyzF+1wB9OH/ATXTTNRlD0e2AAAAAElFTkSuQmCC;" parent="1" vertex="1">
                    <mxGeometry x="224" y="345.055" width="120" height="129.89" as="geometry"/>
                </mxCell>
            </root>
        </mxGraphModel>
    </diagram>
</mxfile>
